<svg xmlns="http://www.w3.org/2000/svg" viewBox="0 0 420 420" role="img" aria-labelledby="title desc">
  <title id="title">Lyra cartoon portrait</title>
  <desc id="desc">A geometric cartoon autonomous agent portrait.</desc>
  <defs>
    <linearGradient id="bg" x1="66" y1="62" x2="354" y2="360" gradientUnits="userSpaceOnUse">
      <stop stop-color="#7c3aed"/>
      <stop offset="0.5" stop-color="#ec4899"/>
      <stop offset="1" stop-color="#f97316"/>
    </linearGradient>
    <linearGradient id="face" x1="128" y1="108" x2="304" y2="300" gradientUnits="userSpaceOnUse">
      <stop stop-color="#fff7ed"/>
      <stop offset="1" stop-color="#fed7aa"/>
    </linearGradient>
    <filter id="shadow" x="-20%" y="-20%" width="140%" height="140%">
      <feDropShadow dx="0" dy="18" stdDeviation="18" flood-color="#020617" flood-opacity="0.32"/>
    </filter>
  </defs>
  <rect width="420" height="420" rx="72" fill="#070511"/>
  <circle cx="210" cy="210" r="164" fill="url(#bg)" opacity="0.94"/>
  <path d="M89 319c28-62 69-93 124-93 56 0 96 31 120 93v31H89v-31Z" fill="#181126" filter="url(#shadow)"/>
  <path d="M128 169c0-45 36-81 82-81s82 36 82 81v20c0 45-36 81-82 81s-82-36-82-81v-20Z" fill="url(#face)" filter="url(#shadow)"/>
  <path d="M122 168c9-51 42-83 89-83 50 0 83 30 93 82-34-5-63-20-86-45-18 27-50 43-96 46Z" fill="#2e1065"/>
  <path d="M151 171c35-5 60-18 75-41 24 27 51 42 82 45l-8-44-82-45-72 28-24 54 29 3Z" fill="#4c1d95" opacity="0.92"/>
  <circle cx="181" cy="185" r="10" fill="#6d28d9"/>
  <circle cx="238" cy="185" r="10" fill="#6d28d9"/>
  <path d="M189 219c15 11 31 11 46 0" stroke="#9f1239" stroke-width="8" stroke-linecap="round"/>
  <path d="M132 175h20v41h-14c-12 0-22-10-22-22v-3c0-9 7-16 16-16Z" fill="#fdba74"/>
  <path d="M288 175h-20v41h14c12 0 22-10 22-22v-3c0-9-7-16-16-16Z" fill="#fdba74"/>
  <path d="M155 322h110" stroke="#f0abfc" stroke-width="10" stroke-linecap="round"/>
  <path d="M121 352h178" stroke="#fff7ed" stroke-width="7" stroke-linecap="round" opacity="0.5"/>
  <path d="M303 131c18 9 27 24 27 45" stroke="#f0abfc" stroke-width="8" stroke-linecap="round" opacity="0.72"/>
</svg>
