<svg width="85" height="23" viewBox="0 0 85 23" fill="none" xmlns="http://www.w3.org/2000/svg" role="img">
  <title>Enline</title>
  <path d="M5.66697 16.3738H15.7079C16.0974 16.3738 16.4382 16.0988 16.4872 15.708C16.5336 15.3387 16.5568 14.9577 16.5568 14.5651C16.5568 10.0132 13.2989 6.60681 8.89472 6.60681C4.12852 6.60681 0.870605 10.0735 0.870605 14.5651C0.870605 19.0567 4.06818 22.5234 9.22654 22.5234C11.7348 22.5234 13.7577 21.7152 15.2145 20.1391C15.551 19.7751 15.4273 19.2028 14.9989 18.9566L12.7534 17.6663C12.4194 17.4744 12.0028 17.5498 11.6872 17.7713C11.0743 18.2014 10.2336 18.484 9.28687 18.484C7.62775 18.484 6.24012 17.9414 5.66697 16.3738ZM5.57648 12.9976C5.9988 11.4602 7.1451 10.6161 8.86455 10.6161C10.222 10.6161 11.5795 11.2492 12.0621 12.9976H5.57648Z" fill="white"/>
  <path d="M27.9619 6.60681C25.9709 6.60681 24.4626 7.33029 23.6482 8.44566V7.86339C23.6482 7.40248 23.2787 7.02884 22.823 7.02884H19.9485C19.4927 7.02884 19.1233 7.40248 19.1233 7.86339V21.2669C19.1233 21.7278 19.4927 22.1014 19.9485 22.1014H22.823C23.2787 22.1014 23.6482 21.7278 23.6482 21.2669V13.8718C23.6482 11.7315 24.7945 10.7668 26.4536 10.7668C27.9016 10.7668 29.078 11.641 29.078 13.51V21.2669C29.078 21.7278 29.4475 22.1014 29.9032 22.1014H32.7777C33.2334 22.1014 33.6029 21.7278 33.6029 21.2669V12.8469C33.6029 8.77726 31.0086 6.60681 27.9619 6.60681Z" fill="white"/>
  <path d="M36.7102 21.2669C36.7102 21.7278 37.0797 22.1014 37.5354 22.1014H40.4099C40.8656 22.1014 41.2351 21.7278 41.2351 21.2669V0.930003C41.2351 0.469097 40.8656 0.095459 40.4099 0.095459H37.5354C37.0797 0.095459 36.7102 0.469097 36.7102 0.930004V21.2669Z" fill="white"/>
  <path d="M44.502 21.2671C44.502 21.728 44.8714 22.1017 45.3272 22.1017H48.2016C48.6574 22.1017 49.0268 21.728 49.0268 21.2671V7.62629C49.0268 7.16539 48.6574 6.79175 48.2016 6.79175H45.3272C44.8714 6.79175 44.502 7.16539 44.502 7.62629V21.2671Z" fill="white"/>
  <path d="M44.502 4.05826C44.502 4.51917 44.8714 4.89281 45.3272 4.89281H48.2016C48.6574 4.89281 49.0268 4.51917 49.0268 4.05826V0.8614C49.0268 0.400494 48.6574 0.0268555 48.2016 0.0268555H45.3272C44.8714 0.0268555 44.502 0.400494 44.502 0.8614V4.05826Z" fill="white"/>
  <path d="M61.1063 6.60693C59.1153 6.60693 57.607 7.33042 56.7926 8.44579V7.86351C56.7926 7.4026 56.4231 7.02897 55.9674 7.02897H53.0929C52.6371 7.02897 52.2677 7.4026 52.2677 7.86351V21.267C52.2677 21.7279 52.6371 22.1015 53.0929 22.1015H55.9674C56.4231 22.1015 56.7926 21.7279 56.7926 21.267V13.8719C56.7926 11.7316 57.9389 10.767 59.598 10.767C61.0459 10.767 62.2224 11.6412 62.2224 13.5102V21.267C62.2224 21.7279 62.5919 22.1015 63.0476 22.1015H65.9221C66.3778 22.1015 66.7473 21.7279 66.7473 21.267V12.847C66.7473 8.77738 64.153 6.60693 61.1063 6.60693Z" fill="white"/>
  <path d="M74.1101 16.374H84.1511C84.5405 16.374 84.8813 16.0989 84.9304 15.7082C84.9768 15.3388 84.9999 14.9578 84.9999 14.5653C84.9999 10.0133 81.742 6.60693 77.3378 6.60693C72.5716 6.60693 69.3137 10.0736 69.3137 14.5653C69.3137 19.0569 72.5113 22.5236 77.6697 22.5236C80.1779 22.5236 82.2008 21.7153 83.6576 20.1393C83.9941 19.7752 83.8704 19.2029 83.442 18.9567L81.1965 17.6665C80.8625 17.4745 80.4459 17.55 80.1303 17.7715C79.5174 18.2015 78.6767 18.4841 77.73 18.4841C76.0709 18.4841 74.6832 17.9415 74.1101 16.374ZM74.0196 12.9977C74.4419 11.4603 75.5882 10.6162 77.3077 10.6162C78.6651 10.6162 80.0226 11.2493 80.5052 12.9977H74.0196Z" fill="white"/>
</svg>
